<svg id="Layer_1" xmlns="http://www.w3.org/2000/svg" version="1.1" viewBox="99.8 326.47 520.43 66.68" fill="currentColor">
  <!-- Generator: Adobe Illustrator 29.6.1, SVG Export Plug-In . SVG Version: 2.1.1 Build 9)  -->
  <defs>
    <style>
      .st0 {
        fill: none;
      }
    </style>
  </defs>
  <path d="M169.83,392.25h-37.84c-17.75,0-32.18-14.44-32.18-32.19,0-8.59,3.34-16.67,9.41-22.75,6.09-6.09,14.17-9.44,22.77-9.44h52.23v27.37h-52.23c-1.74,0-2.88.89-3.41,1.41-.52.52-1.41,1.67-1.41,3.41,0,2.66,2.16,4.82,4.82,4.82h37.84v27.37Z"/>
  <path d="M240.85,332.76h-18.77c-2.7,0-4.89-2.19-4.89-4.89h0s-26.72,0-26.72,0v27.37h49.77c2.66,0,4.82,2.16,4.82,4.82h0c0,2.66-2.16,4.82-4.82,4.82h-64.03v27.37h96.22v-36.66h.03v-27.72h-26.72c0,2.7-2.19,4.89-4.89,4.89Z"/>
  <path d="M305.82,357.98v-30.11h-28.02v64.38h52.29v-27.44h-17.45c-3.77,0-6.82-3.05-6.82-6.82Z"/>
  <path class="st0" d="M184.22,355.24"/>
  <g>
    <path d="M380.71,327.75l6.98,44.55h.19l4.78-44.55h17.2l-11.66,64.39h-19.49l-5.92-43.29h-.19l-5.92,43.29h-19.49l-11.66-64.39h17.2l5.35,44.55h.19l6.4-44.55h16.06Z"/>
    <path d="M413.29,344.57c.83-4.24,2.2-7.7,4.11-10.37,1.91-2.67,4.43-4.63,7.55-5.86,3.12-1.23,6.94-1.85,11.47-1.85s8.35.62,11.47,1.85c3.12,1.23,5.64,3.19,7.55,5.86,1.91,2.68,3.28,6.13,4.11,10.37.83,4.24,1.24,9.36,1.24,15.38s-.42,11.14-1.24,15.38c-.83,4.24-2.2,7.7-4.11,10.37-1.91,2.68-4.43,4.58-7.55,5.73-3.12,1.14-6.94,1.71-11.47,1.71s-8.35-.57-11.47-1.71c-3.12-1.14-5.64-3.05-7.55-5.73-1.91-2.67-3.28-6.13-4.11-10.37-.83-4.24-1.24-9.36-1.24-15.38s.41-11.14,1.24-15.38ZM430.59,370.72c.13,2.86.4,5.13.81,6.81.41,1.68,1.02,2.86,1.82,3.52.8.66,1.86.99,3.2.99s2.4-.33,3.2-.99c.8-.66,1.4-1.83,1.82-3.52.41-1.68.68-3.95.81-6.81.13-2.85.19-6.45.19-10.78s-.06-7.92-.19-10.78c-.13-2.85-.4-5.12-.81-6.81-.42-1.68-1.02-2.85-1.82-3.52-.8-.66-1.86-.99-3.2-.99s-2.41.33-3.2.99c-.8.66-1.4,1.84-1.82,3.52-.42,1.68-.69,3.95-.81,6.81-.13,2.86-.19,6.45-.19,10.78s.06,7.92.19,10.78Z"/>
    <path d="M495,327.75c3.38,0,6.26.42,8.65,1.26,2.39.84,4.33,2.03,5.83,3.56,1.5,1.53,2.58,3.35,3.25,5.46.67,2.11,1,4.39,1,6.85,0,4.33-.92,7.82-2.77,10.46-1.85,2.65-4.81,4.27-8.89,4.87v.18c4.27.36,7.2,1.77,8.79,4.24,1.59,2.47,2.39,5.86,2.39,10.19v8.12c0,.9.03,1.76.1,2.57.06.81.16,1.55.29,2.21.13.66.29,1.17.48,1.53.25.36.51.71.76,1.04.25.33.67.65,1.24.95v.9h-18.92c-.45-.84-.78-1.83-1-2.98-.22-1.14-.38-2.28-.48-3.43-.1-1.14-.16-2.24-.19-3.29-.03-1.05-.05-1.91-.05-2.57v-4.33c0-1.8-.1-3.31-.29-4.51-.19-1.2-.53-2.15-1-2.84-.48-.69-1.08-1.17-1.82-1.44-.73-.27-1.64-.41-2.72-.41h-4.68v25.79h-17.78v-64.39h27.81ZM488.51,354.99c2.55,0,4.43-.71,5.64-2.12,1.21-1.41,1.82-3.26,1.82-5.55,0-2.71-.59-4.63-1.77-5.77-1.18-1.14-3.11-1.71-5.78-1.71h-3.44v15.15h3.54Z"/>
    <path d="M539.15,327.75v24.71h.19l13.19-24.71h18.92l-17.2,28.13,19.3,36.25h-20.26l-10.42-22.45-3.73,5.41v17.04h-17.77v-64.39h17.77Z"/>
    <path d="M601.75,344.8c0-1.92-.42-3.56-1.24-4.91-.83-1.35-2.1-2.03-3.82-2.03-1.91,0-3.31.59-4.2,1.76-.89,1.17-1.34,2.48-1.34,3.92,0,2.11.72,3.77,2.15,5,1.43,1.23,3.23,2.3,5.4,3.2,2.16.9,4.49,1.82,6.98,2.75,2.49.93,4.81,2.15,6.98,3.65,2.17,1.5,3.97,3.47,5.4,5.91,1.43,2.43,2.15,5.61,2.15,9.51,0,6.85-2.07,11.83-6.21,14.92-4.14,3.1-10.13,4.64-17.97,4.64-3.7,0-6.96-.29-9.8-.86-2.84-.57-5.23-1.56-7.17-2.98-1.94-1.41-3.43-3.26-4.44-5.55-1.02-2.28-1.53-5.11-1.53-8.48v-2.25h17.2v1.53c0,2.77.54,4.7,1.62,5.82,1.08,1.11,2.48,1.67,4.2,1.67,1.85,0,3.26-.6,4.25-1.8.99-1.2,1.48-2.67,1.48-4.42,0-2.1-.69-3.77-2.05-5-1.37-1.23-3.09-2.28-5.16-3.16-2.07-.87-4.32-1.76-6.74-2.66-2.42-.9-4.67-2.07-6.74-3.52-2.07-1.44-3.79-3.34-5.16-5.68-1.37-2.35-2.05-5.41-2.05-9.2,0-6.55,1.85-11.54,5.54-14.97,3.69-3.43,9.3-5.14,16.82-5.14s13.39,1.58,16.87,4.73c3.47,3.16,5.21,8.19,5.21,15.11h-16.63v-1.53Z"/>
  </g>
</svg>